Coordinates
version=1
nRows=8
nColumns=28
inDegrees=yes

Units are S.I. units (second, meters, Newtons, ...)
If the header above contains a line with 'inDegrees', this indicates whether rotational values are in degrees (yes) or radians (no).

endheader
time	pelvis_tilt	pelvis_list	pelvis_rotation	pelvis_tx	pelvis_ty	pelvis_tz	hip_flexion_r	hip_adduction_r	hip_rotation_r	knee_angle_r	knee_rotation_r	knee_adduction_r	ankle_angle_r	subtalar_angle_r	mtp_angle_r	hip_flexion_l	hip_adduction_l	hip_rotation_l	knee_angle_l	knee_rotation_l	knee_adduction_l	ankle_angle_l	subtalar_angle_l	mtp_angle_l	lumbar_extension	lumbar_bending	lumbar_rotation
      0.60000000	     13.68902014	      7.79512383	    -83.21624793	     -0.20917339	      0.95739492	     -0.23450880	     33.36944526	    -16.68704732	     14.07947699	    -10.05986755	    -18.61904129	      2.45279048	      5.51297490	     -6.35958987	     -4.13659713	      6.07798876	     14.71547360	     11.11293322	    -18.86207328	      9.17740323	     -4.95757393	     24.83239978	      2.31507262	     -3.92398153	      0.00000000	      0.00000000	      0.00000000
      0.61000000	     13.50134787	      8.33276171	    -83.19443856	     -0.21043986	      0.95519885	     -0.22246075	     32.64364902	    -16.15338101	     14.37310171	     -5.34992516	    -19.49558158	      0.78149214	      5.30476222	     -5.52280362	     -3.95051863	      6.01924720	     14.15785448	     10.83072414	    -19.11368818	      8.90039384	     -5.30910968	     25.45601766	      2.54826108	     -3.92231705	      0.00000000	      0.00000000	      0.00000000
      0.62000000	     13.18073584	      8.45544275	    -83.07764310	     -0.21164981	      0.95360858	     -0.21039838	     31.52596100	    -15.73027256	     14.30745577	     -1.14127307	    -20.17539171	     -0.32639345	      5.02409957	     -5.17464797	     -3.50454389	      5.60099271	     13.44907350	     10.41011913	    -19.53015125	      8.24208151	     -5.62181236	     26.10412527	      2.69090154	     -3.92805742	      0.00000000	      0.00000000	      0.00000000
      0.63000000	     13.07590645	      8.77932582	    -82.95317731	     -0.21240416	      0.95157818	     -0.19853814	     31.13093070	    -15.65149460	     14.56296752	      1.73486724	    -21.57618718	     -0.94622171	      4.90094926	     -4.52145897	     -3.50158458	      5.32882051	     13.08772259	     10.48801654	    -19.86132386	      8.06998437	     -5.92573022	     26.59054333	      2.73204454	     -3.97524261	      0.00000000	      0.00000000	      0.00000000
      0.64000000	     13.02731400	      8.95211087	    -82.84705413	     -0.21268726	      0.94981169	     -0.18687312	     31.08822731	    -15.62467244	     15.03300854	      3.27668048	    -23.48517954	     -1.31524903	      5.34014402	     -3.19456450	     -3.58919357	      4.95836672	     12.87151800	     10.53129675	    -20.29355609	      8.13989398	     -6.05923961	     26.99145164	      3.27319404	     -4.05713145	      0.00000000	      0.00000000	      0.00000000
      0.65000000	     13.14010520	      9.18525355	    -82.85877728	     -0.21295356	      0.94778920	     -0.17540025	     31.58028302	    -15.62491963	     16.16543083	      3.59100225	    -25.50033828	     -1.60003456	      5.76277434	     -2.16962011	     -3.65339080	      4.63881965	     12.88220557	     10.67707206	    -20.67763094	      8.16610833	     -6.15009752	     27.23096210	      3.47675466	     -4.15246643	      0.00000000	      0.00000000	      0.00000000
      0.66000000	     13.32834652	      9.38195883	    -82.76969173	     -0.21299964	      0.94572873	     -0.16393688	     32.38924559	    -15.71832737	     16.96801102	      2.64228258	    -26.78875553	     -1.59221825	      6.21475844	     -1.10461423	     -3.39988228	      4.33012674	     13.05714672	     10.88647950	    -21.21217443	      8.19714489	     -6.08207795	     27.52178884	      3.70734524	     -4.25575452	      0.00000000	      0.00000000	      0.00000000
      0.67000000	     13.67331827	      9.59726653	    -82.70515995	     -0.21288518	      0.94384899	     -0.15248955	     33.53655523	    -16.07033934	     18.01862924	      0.52891375	    -27.55954705	     -0.89033063	      6.60198170	     -1.19798057	     -2.89118233	      3.97127744	     13.42017478	     11.38889596	    -21.61362169	      8.09724465	     -6.11916318	     27.38474599	      3.20508713	     -4.42392725	      0.00000000	      0.00000000	      0.00000000
